<svg xmlns="http://www.w3.org/2000/svg" viewBox="0 745.3 1280 407.2"><path fill-rule="evenodd" clip-rule="evenodd" fill="#EB443F" d="M0 745.3h1280.2V1039H1114v113.4H0V745.3z"/><path fill-rule="evenodd" clip-rule="evenodd" fill="#FFF" d="M690.4 1097.9c10.6 0 11.7-10.4 11.7-10.4l.1-1.3s-.1-287 0-288.2c.1-1.2-1.1-11.6-11.7-11.6h-38.1c-11.1 0-11.7 11.6-11.7 11.6s.1 86 0 103.6c-.1 17.5-16.4 19.5-19.5 19.4-2.2-.1-132.2-.1-133.6 0-1.8.1-19.1-1.2-19.8-19.4-.1-18.1 0-102.5 0-103.6s-1.2-11.5-12-11.6h-38.1c-10.1.3-11.7 9.5-11.7 11.6 0 2.1.5 276.6.5 276.6-.1 5.9 4.2 22.7 23.5 23.2h68.4c6.6.3 22.3-4.2 23.5-23.2 0-20.7-.2-75.8 0-78.6.2-2.8 1.4-19.4 20-19.4h79c17.1 0 19.8 16.9 19.8 18.3 0 1.4-.1 80.9-.1 91.3.8 10.4 8.8 11.6 11.9 11.6 2.8.2 27.3.2 37.9.1zM856.5 1097.9c2.5 0 23.5-1.8 23.5-23.2V965l-52.8-52.6V798.1c.3-.9-.8-11.4-11.8-11.6-10.9-.1-28.5-.1-39.2 0-10.7.5-12.1 9.6-12.1 11.6s-.1 273.2 0 276.6c-.3 5.6 4.1 23.1 23.2 23.2 21.3.1 66.7.1 69.2 0zM1156.3 920.2c11.5-.1 11.8-11.6 11.8-11.6v-56.7s-.5-11.6-11.8-11.6H1007c-10.7 0-11.8 10.6-11.8 11.6v56.7c0 .7.4 11.8 11.8 11.6s137.8 0 149.3 0zm-128.9 177.7c-5.4 0-49.1-.1-69.7 0s-23.7-19.6-23.6-23.2c-.1-2.9 0-263.2 0-265 0-2.9 1.9-22.6 23.6-23.2 21.9-.1 247 0 247 0 17.2.2 23.8 15.4 23.6 23.2 0 0 .1 137.1 0 142.8-.1 5.8-3 22.4-23.6 23.3h-133.8c-17.8.8-19.8 16.4-19.8 19.4v79.4c-1.6 20.9-17.4 23.3-23.7 23.3zM51.8 809.8v23.3z"/><path fill="#FFF" d="M344.2 1074.7c-1 20-15 23.2-23.2 23.2s-243.5-.1-245.8 0c-2.4.3-23.1-2.3-23.2-23.2-.1-21 0-161.1-.1-241.7v-23.2c1.6-22.2 20-23.2 22.9-23.3H321c10.3 0 23.2 7.8 23.2 23.4v69c-1 11.3-11.5 11.4-11.6 11.4h-37.5c-11.8-1-11.6-11.6-11.6-11.6l-.1-17.1s.9-19.4-20.4-20.2c-19.8.1-129.3.2-130.1.1-1.8 0-18.7 1.1-19.4 19.4-.1 18.5 0 51 0 51l52.8 52.3s-.1 55.2 0 58.8c-.2 3.7 2.1 17.8 17.7 19.3 14.6.1 75.5.1 80.2.1 4.7 0 18.8-3.1 19.4-19.4.2-3.4 0-5.6.2-11.6s2.7-12.7 11.4-13.1c14.1 0 26.6-.1 37.5 0 11 .6 11.7 10.5 11.6 11.6-.2 1.1 0 45.2-.1 64.8z"/></svg>