<?xml version="1.0" encoding="utf-8"?>
<!-- Generator: Adobe Illustrator 22.1.0, SVG Export Plug-In . SVG Version: 6.00 Build 0)  -->
<svg version="1.1" id="Ebene_1" xmlns="http://www.w3.org/2000/svg" xmlns:xlink="http://www.w3.org/1999/xlink" x="0px" y="0px"
	 viewBox="0 0 380.4 120.5" style="enable-background:new 0 0 380.4 120.5;" xml:space="preserve">
<style type="text/css">
	.st0{fill:#E30613;stroke:#E20D18;stroke-width:0.2835;}
	.st1{fill:#FFFFFF;}
	.st2{fill:#E30613;}
</style>
<g>
	<path class="st0" d="M41.5,53.6c0-19.5,5.2-25.7,13.2-25.7c7.8,0,13,6,13.2,24.5l3.2-3.2V28.8h12l1.2,7.2l35.9-35.9H0.1v120
		l45.6-45.6C43,70.8,41.5,64.2,41.5,53.6z M27.1,79.3c-9.7,0-12.8-9.5-12.8-25.7C14.3,34.8,20,28,27.1,28c10.4,0,11.6,9.6,11.6,18.6
		l-8,0.3c0-8.2-1.1-11.2-3.2-11.2c-1.9,0-3.7,1.3-3.7,18.1c0,16.2,1,18.1,3.7,18.1c3,0,3.7-4.6,3.8-11.7l7.6,0.4
		C38.9,69,37.6,79.3,27.1,79.3z"/>
	<path class="st0" d="M58,48.5c0-10.6-1.3-12.8-3.3-12.8c-2.1,0-3.3,2.1-3.3,12.8v10.4c0,4.6,0.2,7.6,0.7,9.6l6-6
		c0-1.1,0.1-2.2,0.1-3.6L58,48.5L58,48.5z"/>
	<polygon class="st0" points="77.7,42.7 78,42.5 77.9,42.2 77.7,42.2 	"/>
</g>
<path d="M30.7,46.9c0-8.2-1.1-11.2-3.2-11.2c-1.9,0-3.7,1.3-3.7,18.1c0,16.2,1,18.1,3.7,18.1c3,0,3.7-4.6,3.8-11.7l7.6,0.4
	c0,8.6-1.3,19-11.8,19c-9.7,0-12.8-9.5-12.8-25.7c0-18.8,5.7-25.7,12.8-25.7c10.4,0,11.6,9.6,11.6,18.6L30.7,46.9z M54.7,28.1
	c8,0,13.2,6.2,13.2,25.7s-5.2,25.7-13.2,25.7s-13.2-6.2-13.2-25.7C41.5,34.2,46.7,28.1,54.7,28.1z M51.4,58.9
	c0,10.6,1.3,12.8,3.3,12.8c2.1,0,3.3-2.1,3.3-12.8V48.5c0-10.6-1.3-12.8-3.3-12.8c-2.1,0-3.3,2.1-3.3,12.8V58.9z M71,29h12l4,25.3
	h0.1L91.3,29h11.7v49.4h-8V42.2H95l-6.1,36.2h-5l-6.1-36.2h-0.1v36.2h-6.6L71,29L71,29z M107.6,29h9c10.2,0,15.5,4.1,15.5,14.7
	c0,8.9-3.5,14.8-11.9,14.8h-3.6v19.7h-9V29z M116.7,51.4h0.8c3.7,0,5.7-1.5,5.7-7.4c0-7.1-2.7-7.3-5.8-7.3h-0.7L116.7,51.4
	L116.7,51.4z M134.8,29h9v38.2c0,2.2,0.5,4.5,3.1,4.5c2.5,0,3.3-2.1,3.3-4.5V29h7.6v37c0,9.7-4.3,13.3-11.5,13.3
	c-6.9,0-11.6-3.6-11.6-13.3L134.8,29L134.8,29z M166.8,36.7H159V29h24.5v7.6h-7.8v41.8h-9L166.8,36.7L166.8,36.7z M185.1,29h20.4
	v7.6h-11.3v12.6h8.4v8h-8.4v13.5H206v7.6h-20.9V29z M208.8,29H219c8.6,0,14.3,3.6,14.3,14c0,4.2-1.3,9.7-5.3,12.1l5.4,23.3h-9.1
	L220,57.3h-2.1v21.2h-9L208.8,29L208.8,29z M217.8,49.9h1.8c3.3,0,4.6-3.3,4.6-6.8c0-5.4-2-6.8-5-6.8h-1.4V49.9z M234.6,29h8.2
	l3.2,29h0.1l4.3-29h8.1l3.9,29h0.1l3.5-29h6.4L266,78.4h-8.1l-4.3-31.2h-0.1l-4.4,31.2h-7.9L234.6,29z M286.8,28.1
	c8,0,13.2,6.2,13.2,25.7s-5.2,25.7-13.2,25.7c-8,0-13.2-6.2-13.2-25.7C273.6,34.2,278.8,28.1,286.8,28.1z M283.5,58.9
	c0,10.6,1.3,12.8,3.3,12.8c2.1,0,3.3-2.1,3.3-12.8V48.5c0-10.6-1.3-12.8-3.3-12.8c-2.1,0-3.3,2.1-3.3,12.8V58.9z M319.6,46.9
	c0-8.2-1.1-11.2-3.2-11.2c-1.9,0-3.7,1.3-3.7,18.1c0,16.2,1,18.1,3.7,18.1c3,0,3.7-4.6,3.8-11.7l7.6,0.4c0,8.6-1.3,19-11.8,19
	c-9.7,0-12.8-9.5-12.8-25.7c0-18.8,5.7-25.7,12.8-25.7c10.4,0,11.6,9.6,11.6,18.6L319.6,46.9z M331.3,29h9v19.8h5.7V29h9v49.4h-9
	V57.6h-5.7v20.9h-9V29z M359.5,29h20.4v7.6h-11.3v12.6h8.4v8h-8.4v13.5h11.8v7.6h-20.9V29z"/>
<g>
	<path class="st1" d="M21.8,15.4h1l-3.1,6.6h-0.9l-3.2-6.6h1l2.3,4.9c0.1,0.3,0.2,0.5,0.3,0.8c0.1-0.3,0.1-0.4,0.2-0.7L21.8,15.4z"
		/>
	<path class="st1" d="M31.9,18.7c0,2.3-1.9,3.4-4,3.4c-1,0-1.9-0.2-2.7-0.7c-0.6-0.4-1.3-1.3-1.3-2.7c0-2.4,2-3.5,4-3.5
		C30.2,15.2,31.9,16.6,31.9,18.7z M24.8,18.7c0,0.5,0.1,1.2,0.6,1.7c0.6,0.7,1.6,1,2.5,1c2.4,0,3-1.5,3-2.7c0-1.7-1.4-2.7-3.2-2.7
		C26.4,16,24.8,16.7,24.8,18.7L24.8,18.7z"/>
	<path class="st1" d="M34.8,15.4l4.4,4.7c0.2,0.3,0.5,0.5,0.7,0.8c0-0.3-0.1-0.6-0.1-1v-4.6h0.9v6.6h-0.9L35.2,17
		c-0.2-0.3-0.3-0.4-0.5-0.6c0,0.4,0.1,0.8,0,1.1v4.4h-0.9v-6.6L34.8,15.4L34.8,15.4z"/>
	<path class="st1" d="M47,15.4h1v6.6h-1V15.4z"/>
	<path class="st1" d="M50.5,15.4h3.3c0.8,0,1.6,0,2.5,0.7c0.5,0.4,1.1,1.3,1.1,2.5c0,1.2-0.5,2-0.9,2.4c-0.9,0.9-2.2,0.9-3.3,0.9
		h-2.6V15.4L50.5,15.4z M51.4,16.1v5h1.9c0.8,0,1.9,0,2.6-0.9c0.4-0.5,0.5-1.1,0.5-1.7c0-0.9-0.3-1.5-0.7-1.8
		c-0.6-0.6-1.4-0.6-2-0.6H51.4z"/>
	<path class="st1" d="M65.6,21.1c-0.1,0.1-0.2,0.2-0.4,0.3c-0.5,0.4-1.4,0.7-2.5,0.7c-2.3,0-3.8-1.6-3.8-3.5c0-0.7,0.2-1.3,0.6-1.9
		c0.6-0.9,1.8-1.6,3.4-1.6c1.5,0,2.5,0.6,2.9,0.9c0.4,0.3,0.5,0.6,0.6,0.8l-0.9,0.3c-0.1-0.2-0.3-0.4-0.4-0.5
		C64.5,16.2,63.7,16,63,16c-1.6,0-3,0.9-3,2.6c0,0.5,0.2,1.1,0.4,1.5c0.7,1.1,2.1,1.2,2.5,1.2c0.6,0,1.6-0.2,2.2-0.9
		c0.4-0.4,0.5-0.8,0.5-1.2h-2.9v-0.8h3.7V22h-0.8V21.1z"/>
</g>
<g>
	<rect x="209.4" y="86" class="st2" width="171" height="34.5"/>
	<g>
		<path class="st1" d="M217.7,95.6h3.5l2.4,11.7l2.4-11.7h2.9l-3.8,15.4l-3.8-0.1L217.7,95.6z"/>
		<path class="st1" d="M240.6,103.2c0,5.3-1.9,7.9-5.6,7.9c-1.8,0-3.2-0.7-4.2-2s-1.4-3.3-1.4-5.9c0-5.3,1.9-7.9,5.6-7.9
			c1.8,0,3.2,0.7,4.1,2C240.1,98.6,240.6,100.6,240.6,103.2z M237.1,103.2c0-2.1-0.2-3.4-0.5-4.1c-0.3-0.7-0.8-1-1.5-1
			c-0.7,0-1.2,0.3-1.5,1s-0.5,2.1-0.5,4.1c0,2,0.2,3.4,0.5,4.1c0.3,0.7,0.8,1.1,1.5,1.1c0.7,0,1.2-0.3,1.5-1
			C236.9,106.7,237.1,105.3,237.1,103.2z"/>
		<path class="st1" d="M243,95.6h3.4v15.3H243V95.6z"/>
		<path class="st1" d="M256.7,105.3l3.1,0.2c-0.1,1.7-0.6,3-1.6,4.1c-0.9,1-2.2,1.6-3.7,1.6c-1.9,0-3.3-0.7-4.3-2.1
			s-1.5-3.3-1.5-5.8c0-2.5,0.5-4.4,1.5-5.8c1-1.4,2.4-2.1,4.4-2.1c3.2,0,4.9,2,5.2,5.9l-3.1,0.2c-0.1-2.3-0.8-3.4-2.1-3.4
			c-0.7,0-1.3,0.4-1.7,1.1c-0.4,0.7-0.6,2.2-0.6,4.3c0,1.9,0.2,3.2,0.6,3.9c0.4,0.7,1,1.1,1.7,1.1
			C255.8,108.4,256.5,107.4,256.7,105.3z"/>
		<path class="st1" d="M261.8,95.6h9.3v2.6h-6v3.6h4.6v2.6h-4.6v3.8h6v2.7h-9.3V95.6z"/>
		<path class="st1" d="M287.6,103.2c0,5.3-1.9,7.9-5.6,7.9c-1.8,0-3.2-0.7-4.2-2c-0.9-1.3-1.4-3.3-1.4-5.9c0-5.3,1.9-7.9,5.6-7.9
			c1.8,0,3.2,0.7,4.1,2S287.6,100.6,287.6,103.2z M284.1,103.2c0-2.1-0.2-3.4-0.5-4.1c-0.3-0.7-0.8-1-1.5-1c-0.7,0-1.2,0.3-1.5,1
			c-0.3,0.7-0.5,2.1-0.5,4.1c0,2,0.2,3.4,0.5,4.1s0.8,1.1,1.5,1.1c0.7,0,1.2-0.3,1.5-1C283.9,106.7,284.1,105.3,284.1,103.2z"/>
		<path class="st1" d="M290,95.6h9.1v2.6h-5.7v4h4.4v2.6h-4.4v6.1H290V95.6z"/>
		<path class="st1" d="M304.4,95.6h3.6c1.6,0,2.9,0.2,3.8,0.6s1.8,1.2,2.4,2.3s0.9,2.7,0.9,4.6c0,1.4-0.2,2.6-0.5,3.7
			c-0.4,1.1-0.8,1.9-1.4,2.5s-1.2,1-2,1.2c-0.7,0.2-1.7,0.3-2.8,0.3h-4V95.6z M307.8,98.2v10.1h0.6c0.8,0,1.4-0.1,1.8-0.5
			c0.4-0.3,0.8-0.8,1-1.6c0.3-0.7,0.4-1.8,0.4-3.2c0-1.3-0.1-2.3-0.4-3c-0.3-0.7-0.6-1.2-1.1-1.4c-0.4-0.3-1-0.4-1.7-0.4H307.8z"/>
		<path class="st1" d="M317.4,95.6h3.4v15.3h-3.4V95.6z"/>
		<path class="st1" d="M329,102.7h5.3v8.2h-1.4l-0.4-1.8c-0.8,1.3-2.1,2-3.7,2c-1.7,0-3.1-0.7-4.1-2.1c-1-1.4-1.5-3.2-1.5-5.5
			c0-2.5,0.5-4.5,1.5-6c1-1.5,2.5-2.2,4.5-2.2c3.1,0,4.9,1.8,5.3,5.3l-3,0.5c-0.2-2-0.9-3-2.2-3c-0.8,0-1.4,0.4-1.8,1.1
			c-0.5,0.7-0.7,2.1-0.7,4.2c0,1.8,0.2,3.1,0.7,3.9c0.4,0.7,1.1,1.1,1.9,1.1c1.4,0,2.1-1,2.1-3H329V102.7z"/>
		<path class="st1" d="M337,95.6h3.4v15.3H337V95.6z"/>
		<path class="st1" d="M341.5,95.6h9.6v2.9h-3.1v12.5h-3.4V98.5h-3.1V95.6z"/>
		<path class="st1" d="M354.6,95.6h3.4l4.4,15.3H359l-0.8-3.2h-4.3l-0.8,3.2H350L354.6,95.6z M357.6,105.1l-1.5-6.3l-1.5,6.3H357.6z
			"/>
		<path class="st1" d="M363.7,95.6h3.4V108h4.9v2.9h-8.3V95.6z"/>
	</g>
</g>
</svg>
