<svg id="Ebene_1" data-name="Ebene 1" xmlns="http://www.w3.org/2000/svg" width="181" height="47" viewBox="0 0 181 47">
  <title>Voll</title>
  <rect width="181" height="47" style="fill: #fff"/>
  <rect x="15.27" y="18" width="17.03" height="4.48" style="fill: #cc051c"/>
  <rect x="15.27" y="24.82" width="17.03" height="4.48" style="fill: #cc051c"/>
  <rect x="115.48" y="15.4" width="1.65" height="1.65" style="fill: #005ea8"/>
  <rect x="118.43" y="15.41" width="1.65" height="1.65" style="fill: #005ea8"/>
  <path d="M37.55,18V29.3h3.65a6.52,6.52,0,0,0,4-1,5.73,5.73,0,0,0-.67-9.72A6.84,6.84,0,0,0,41,18H37.55m1.64,9.79V19.51H41a5.31,5.31,0,0,1,2.81.47,3.92,3.92,0,0,1,2,3.63A4.11,4.11,0,0,1,44.22,27a4.79,4.79,0,0,1-3,.76Z" style="fill: #005ea8;fill-rule: evenodd"/>
  <polyline points="49.15 18 49.15 29.3 55.46 29.3 55.46 27.79 50.79 27.79 50.79 24.37 55.15 24.37 55.15 22.86 50.79 22.86 50.79 19.51 55.31 19.51 55.31 18 49.15 18" style="fill: #005ea8"/>
  <path d="M56.94,18V29.3h1.64V24.37c1.66,0,2,.3,3.7,3.08.46.78.81,1.34.85,1.42s.16.24.28.42h1.91a7.56,7.56,0,0,1-.8-1.15l-.25-.44-.52-.88c-.31-.52-.71-1.17-1-1.56a5.16,5.16,0,0,0-1.27-1.39,2.75,2.75,0,0,0,1.76-2.69c0-2-1.35-3.18-3.63-3.18H56.94m1.64,4.86V19.51h1.1c1.17,0,1.89.63,1.89,1.63s-.71,1.73-2.07,1.73Z" style="fill: #005ea8;fill-rule: evenodd"/>
  <path d="M70.52,18V29.3H73V24.76h1.71a3.29,3.29,0,0,0,3.6-3.27A3.39,3.39,0,0,0,74.74,18H70.52M73,22.76V20h1.05c1.07,0,1.63.47,1.63,1.37s-.57,1.39-1.63,1.39Z" style="fill: #005ea8;fill-rule: evenodd"/>
  <path d="M84.31,18H81.53L77.32,29.3h2.47l.84-2.3h4.77l.92,2.3H89L84.31,18m.38,7.23H81.25l1.59-4.54Z" style="fill: #005ea8;fill-rule: evenodd"/>
  <path d="M90,18V29.3h2.48V24.67h.25c.9,0,1.54.54,2.1,1.76l1.3,2.86H99a7.39,7.39,0,0,1-.92-1.81c-.84-2-1.32-2.8-2.15-3.46a2.77,2.77,0,0,0,1.74-2.71c0-2-1.48-3.32-3.81-3.32H90m2.48,4.73V20h1.1c1,0,1.51.46,1.51,1.34a1.33,1.33,0,0,1-1.51,1.39Z" style="fill: #005ea8;fill-rule: evenodd"/>
  <rect x="100.1" y="18" width="2.48" height="11.3" style="fill: #005ea8"/>
  <polyline points="104.3 18 104.3 20 107.66 20 107.66 29.3 110.14 29.3 110.14 20 113.49 20 113.49 18 104.3 18" style="fill: #005ea8"/>
  <path d="M119.1,18h-2.78l-4.21,11.3h2.47l.84-2.3h4.77l.92,2.3h2.66L119.1,18m.38,7.23H116l1.59-4.54Z" style="fill: #005ea8;fill-rule: evenodd"/>
  <polyline points="122.27 18 122.27 20 125.63 20 125.63 29.3 128.11 29.3 128.11 20 131.46 20 131.46 18 122.27 18" style="fill: #005ea8"/>
  <rect x="133.56" y="18" width="1.64" height="11.3" style="fill: #005ea8"/>
  <path d="M143,18.61a4.51,4.51,0,0,0-2.48-.75,3,3,0,0,0-3.25,3c0,1.25.67,2.17,2.37,3.17a8.47,8.47,0,0,1,1.66,1.1,1.67,1.67,0,0,1,.69,1.3c0,.88-.67,1.46-1.71,1.46s-1.74-.44-2.84-1.63v2.1a4.54,4.54,0,0,0,2.88,1.07,3,3,0,0,0,3.2-3.07c0-1.59-.64-2.44-2.81-3.71-1.45-.83-1.89-1.3-1.89-2a1.49,1.49,0,0,1,1.61-1.27A3.54,3.54,0,0,1,143,20.58v-2" style="fill: #005ea8"/>
  <path d="M154.19,18.81a8,8,0,0,0-3.71-.95,5.74,5.74,0,0,0-5.95,5.83,5.61,5.61,0,0,0,5.72,5.74,8,8,0,0,0,4.06-1.07V26.62a7,7,0,0,1-3.86,1.29,4.08,4.08,0,0,1-4.22-4.2,4.19,4.19,0,0,1,4.24-4.32,7.08,7.08,0,0,1,3.73,1.24V18.81" style="fill: #005ea8"/>
  <polyline points="157.69 22.86 157.69 18 156.04 18 156.04 29.3 157.69 29.3 157.69 24.37 163.67 24.37 163.67 29.3 165.31 29.3 165.31 18 163.67 18 163.67 22.86 157.69 22.86" style="fill: #005ea8"/>
  <polyline points="167.35 18 167.35 29.3 173.66 29.3 173.66 27.79 168.99 27.79 168.99 24.37 173.35 24.37 173.35 22.86 168.99 22.86 168.99 19.51 173.51 19.51 173.51 18 167.35 18" style="fill: #005ea8"/>
  <path d="M37.59,33.72v6.17h1.79A3,3,0,0,0,41,39.5a1.6,1.6,0,0,0,.74-1.37,1.58,1.58,0,0,0-1.38-1.54,1.32,1.32,0,0,0,.85-1.28c0-1-.75-1.6-1.92-1.6H37.59m.92,2.65V34.54h.7c.77,0,1.11.26,1.11.85a.94.94,0,0,1-.47.83,1.79,1.79,0,0,1-.85.15Zm0,2.69V37.19h.9c1,0,1.42.29,1.42.91s-.44,1-1.37,1Z" style="fill: #cc051c;fill-rule: evenodd"/>
  <path d="M46.34,38.07l.8,1.81h1l-2.72-6.17h-.67l-2.6,6.17H43l.77-1.81h2.52M46,37.25h-1.8L45,35.11Z" style="fill: #cc051c;fill-rule: evenodd"/>
  <path d="M48.82,33.72v6.17h2.05a3.74,3.74,0,0,0,2.25-.56,3,3,0,0,0,1.34-2.53A3.05,3.05,0,0,0,52.74,34a4,4,0,0,0-2-.3H48.82m.92,5.34V34.54h1a3.08,3.08,0,0,1,1.58.26,2.13,2.13,0,0,1,1.15,2,2.22,2.22,0,0,1-.93,1.87,2.76,2.76,0,0,1-1.69.42Z" style="fill: #cc051c;fill-rule: evenodd"/>
  <polyline points="55.52 33.72 55.52 39.88 59.07 39.88 59.07 39.06 56.44 39.06 56.44 37.19 58.89 37.19 58.89 36.37 56.44 36.37 56.44 34.54 58.98 34.54 58.98 33.72 55.52 33.72" style="fill: #cc051c"/>
  <polyline points="64.87 33.72 64.87 38.41 60.92 33.72 60.07 33.72 60.07 39.88 61 39.88 61 35.16 64.99 39.88 65.8 39.88 65.8 33.72 64.87 33.72" style="fill: #cc051c"/>
  <rect x="66.5" y="37.34" width="1.97" height="0.83" style="fill: #cc051c"/>
  <polyline points="76.47 33.72 75 37.87 73.39 33.72 72.53 33.72 71 37.87 69.47 33.72 68.56 33.72 70.89 39.88 71.12 39.88 72.97 34.95 74.88 39.88 75.12 39.88 77.37 33.72 76.47 33.72" style="fill: #cc051c"/>
  <path d="M78.12,33.71V37.5a2.11,2.11,0,0,0,.71,1.81,3.11,3.11,0,0,0,3.8,0,2.11,2.11,0,0,0,.71-1.81V33.71h-.92V37.5A1.37,1.37,0,0,1,82,38.71a2.06,2.06,0,0,1-2.49,0A1.37,1.37,0,0,1,79,37.5V33.71h-.92m1.75-1.44a.52.52,0,1,0,.52.52A.52.52,0,0,0,79.87,32.27Zm1.73,0a.52.52,0,1,0,.52.52A.52.52,0,0,0,81.6,32.27Z" style="fill: #cc051c;fill-rule: evenodd"/>
  <path d="M84.66,33.72v6.17h.92V37.19c.93,0,1.14.17,2.08,1.68l.48.78.16.23h1.07a4.18,4.18,0,0,1-.45-.63L88.79,39l-.3-.48c-.17-.29-.4-.64-.54-.85a2.82,2.82,0,0,0-.71-.76,1.5,1.5,0,0,0,1-1.47c0-1.09-.76-1.74-2-1.74H84.66m.92,2.65V34.54h.62c.66,0,1.06.34,1.06.89s-.4.94-1.17.94Z" style="fill: #cc051c;fill-rule: evenodd"/>
  <polyline points="89.14 33.72 89.14 34.54 91.23 34.54 91.23 39.88 92.16 39.88 92.16 34.54 94.25 34.54 94.25 33.72 89.14 33.72" style="fill: #cc051c"/>
  <polyline points="94.41 33.72 94.41 34.54 96.51 34.54 96.51 39.88 97.44 39.88 97.44 34.54 99.53 34.54 99.53 33.72 94.41 33.72" style="fill: #cc051c"/>
  <polyline points="100.27 33.72 100.27 39.88 103.82 39.88 103.82 39.06 101.2 39.06 101.2 37.19 103.65 37.19 103.65 36.37 101.2 36.37 101.2 34.54 103.74 34.54 103.74 33.72 100.27 33.72" style="fill: #cc051c"/>
  <polyline points="104.83 33.72 104.83 39.88 105.75 39.88 105.75 35.16 107.69 37.57 109.59 35.16 109.59 39.88 110.52 39.88 110.52 33.72 109.67 33.72 107.69 36.21 105.7 33.72 104.83 33.72" style="fill: #cc051c"/>
  <path d="M111.83,33.72v6.17h1.79a3,3,0,0,0,1.67-.38,1.6,1.6,0,0,0,.74-1.37,1.58,1.58,0,0,0-1.38-1.54,1.32,1.32,0,0,0,.85-1.28c0-1-.75-1.6-1.92-1.6h-1.75m.92,2.65V34.54h.7c.77,0,1.11.26,1.11.85a.94.94,0,0,1-.47.83,1.8,1.8,0,0,1-.85.15Zm0,2.69V37.19h.9c1,0,1.42.29,1.42.91s-.45,1-1.37,1Z" style="fill: #cc051c;fill-rule: evenodd"/>
  <polyline points="117.07 33.72 117.07 39.88 120.62 39.88 120.62 39.06 117.99 39.06 117.99 37.19 120.44 37.19 120.44 36.37 117.99 36.37 117.99 34.54 120.53 34.54 120.53 33.72 117.07 33.72" style="fill: #cc051c"/>
  <path d="M121.62,33.72v6.17h.93V37.19c.93,0,1.14.17,2.08,1.68l.48.78.16.23h1.07a4,4,0,0,1-.45-.63l-.14-.24-.3-.48c-.17-.29-.4-.64-.54-.85a2.82,2.82,0,0,0-.71-.76,1.5,1.5,0,0,0,1-1.47c0-1.09-.76-1.74-2-1.74h-1.52m.93,2.65V34.54h.62c.66,0,1.06.34,1.06.89s-.4.94-1.17.94Z" style="fill: #cc051c;fill-rule: evenodd"/>
  <path d="M130,36.84v.82h1.16v1.19a3.67,3.67,0,0,1-1.31.27,2.28,2.28,0,0,1-2.38-2.33,2.31,2.31,0,0,1,2.32-2.32,4.32,4.32,0,0,1,2.19.65v-.93a5.2,5.2,0,0,0-2.16-.55,3.17,3.17,0,0,0-3.29,3.22,3.11,3.11,0,0,0,3.28,3.1,5.38,5.38,0,0,0,2.27-.53V36.84H130" style="fill: #cc051c"/>
  <polyline points="35.71 39.47 7.98 39.47 7.98 7.82 39.63 7.82 39.63 16.9" style="fill: none;stroke: #005ea8;stroke-miterlimit: 3.864;stroke-width: 0.852px"/>
</svg>
