<svg width="40" height="40" viewBox="0 0 40 40" fill="none" xmlns="http://www.w3.org/2000/svg">
<path d="M36.6508 14.589L37.2723 13.9673C37.8019 13.4377 37.8019 12.5791 37.2723 12.0497C36.7426 11.5203 35.8843 11.5203 35.3547 12.0497L34.7177 12.6869L33.4941 7.79273C33.055 6.03663 31.2931 4.66101 29.4831 4.66101H10.5168C8.7068 4.66101 6.94492 6.03663 6.50572 7.79286L5.28229 12.6869L4.64525 12.0497C4.11556 11.5203 3.25724 11.5203 2.72768 12.0497C2.19811 12.5793 2.19811 13.4378 2.72768 13.9673L3.34923 14.589C1.36781 15.5603 0 17.5977 0 19.9491V24.7118C0 26.6339 0.914613 28.3455 2.33037 29.4373V31.8136C2.33037 33.7576 3.91178 35.339 5.85589 35.339H8.50855C10.4525 35.339 12.0339 33.7576 12.0339 31.8136V30.678H27.9659V31.8136C27.9659 33.7576 29.5473 35.339 31.4913 35.339H34.144C36.0879 35.339 37.6695 33.7576 37.6695 31.8136V29.4376C39.0853 28.3457 40 26.6342 40 24.7118V19.9491C40 17.5977 38.6322 15.5603 36.6508 14.589ZM7.85845 13.563L9.13657 8.45064C9.27502 7.89657 9.94586 7.3728 10.5168 7.3728H29.483C30.0539 7.3728 30.7247 7.89657 30.8632 8.45064L32.1414 13.5631C32.1767 13.7049 32.1697 13.8256 32.1224 13.8862C32.0749 13.9468 31.9595 13.983 31.8135 13.983H8.18626C8.04027 13.983 7.92485 13.9468 7.87731 13.8862C7.83017 13.8256 7.82316 13.7049 7.85845 13.563ZM2.71192 19.9491C2.71192 18.1549 4.17185 16.695 5.96606 16.695H34.0339C35.8281 16.695 37.2881 18.1549 37.2881 19.9491V24.7118C37.2881 26.5061 35.8281 27.9661 34.0339 27.9661H5.96606C4.17185 27.9661 2.71192 26.5061 2.71192 24.7118V19.9491V19.9491ZM9.32202 31.8136C9.32202 32.2544 8.94936 32.6271 8.50855 32.6271H5.85576C5.41481 32.6271 5.04215 32.2544 5.04215 31.8136V30.6062C5.34343 30.6532 5.65172 30.678 5.96593 30.678H9.32189V31.8136H9.32202ZM34.9576 31.8136C34.9576 32.2544 34.5849 32.6271 34.144 32.6271H31.4913C31.0505 32.6271 30.6778 32.2544 30.6778 31.8136V30.678H34.0341C34.3481 30.678 34.6564 30.6531 34.9577 30.6062V31.8136H34.9576Z" fill="#5678BA"/>
<path d="M15.3387 23.6865H24.6612C25.41 23.6865 26.017 23.0794 26.017 22.3306C26.017 21.5817 25.4098 20.9747 24.6612 20.9747H15.3387C14.5899 20.9747 13.9829 21.5819 13.9829 22.3306C13.9828 23.0794 14.5899 23.6865 15.3387 23.6865Z" fill="#5678BA"/>
<path d="M8.34734 26.017C10.3801 26.017 12.0338 24.3632 12.0338 22.3305C12.0338 20.2978 10.3801 18.6442 8.34734 18.6442C6.31461 18.6442 4.66101 20.2978 4.66101 22.3305C4.66088 24.3631 6.31461 26.017 8.34734 26.017ZM8.34734 21.3558C8.88471 21.3558 9.32189 21.7931 9.32189 22.3304C9.32189 22.8677 8.88471 23.3049 8.34734 23.3049C7.8101 23.3049 7.3728 22.8677 7.3728 22.3304C7.37266 21.7931 7.80997 21.3558 8.34734 21.3558Z" fill="#5678BA"/>
<path d="M31.6525 26.017C33.6853 26.017 35.3389 24.3632 35.3389 22.3305C35.3389 20.2978 33.6853 18.6442 31.6525 18.6442C29.6198 18.6442 27.9661 20.2978 27.9661 22.3305C27.9659 24.3631 29.6198 26.017 31.6525 26.017ZM31.6525 21.3558C32.1898 21.3558 32.6271 21.7931 32.6271 22.3304C32.6271 22.8677 32.1898 23.3049 31.6525 23.3049C31.1152 23.3049 30.678 22.8677 30.678 22.3304C30.6778 21.7931 31.115 21.3558 31.6525 21.3558Z" fill="#5678BA"/>
</svg>
