<svg width="49" height="40" viewBox="0 0 49 40" fill="none" xmlns="http://www.w3.org/2000/svg">
<path d="M41.6508 14.589L42.2723 13.9673C42.8019 13.4377 42.8019 12.5791 42.2723 12.0497C41.7426 11.5203 40.8843 11.5203 40.3547 12.0497L39.7177 12.6869L38.4941 7.79273C38.055 6.03663 36.2931 4.66101 34.4831 4.66101H15.5168C13.7068 4.66101 11.9449 6.03663 11.5057 7.79286L10.2823 12.6869L9.64525 12.0497C9.11556 11.5203 8.25724 11.5203 7.72768 12.0497C7.19811 12.5793 7.19811 13.4378 7.72768 13.9673L8.34923 14.589C6.36781 15.5603 5 17.5977 5 19.9491V24.7118C5 26.6339 5.91461 28.3455 7.33037 29.4373V31.8136C7.33037 33.7576 8.91178 35.339 10.8559 35.339H13.5086C15.4525 35.339 17.0339 33.7576 17.0339 31.8136V30.678H32.9659V31.8136C32.9659 33.7576 34.5473 35.339 36.4913 35.339H39.144C41.0879 35.339 42.6695 33.7576 42.6695 31.8136V29.4376C44.0853 28.3457 45 26.6342 45 24.7118V19.9491C45 17.5977 43.6322 15.5603 41.6508 14.589ZM12.8585 13.563L14.1366 8.45064C14.275 7.89657 14.9459 7.3728 15.5168 7.3728H34.483C35.0539 7.3728 35.7247 7.89657 35.8632 8.45064L37.1414 13.5631C37.1767 13.7049 37.1697 13.8256 37.1224 13.8862C37.0749 13.9468 36.9595 13.983 36.8135 13.983H13.1863C13.0403 13.983 12.9248 13.9468 12.8773 13.8862C12.8302 13.8256 12.8232 13.7049 12.8585 13.563ZM7.71192 19.9491C7.71192 18.1549 9.17185 16.695 10.9661 16.695H39.0339C40.8281 16.695 42.2881 18.1549 42.2881 19.9491V24.7118C42.2881 26.5061 40.8281 27.9661 39.0339 27.9661H10.9661C9.17185 27.9661 7.71192 26.5061 7.71192 24.7118V19.9491ZM14.322 31.8136C14.322 32.2544 13.9494 32.6271 13.5086 32.6271H10.8558C10.4148 32.6271 10.0422 32.2544 10.0422 31.8136V30.6062C10.3434 30.6532 10.6517 30.678 10.9659 30.678H14.3219V31.8136H14.322ZM39.9576 31.8136C39.9576 32.2544 39.5849 32.6271 39.144 32.6271H36.4913C36.0505 32.6271 35.6778 32.2544 35.6778 31.8136V30.678H39.0341C39.3481 30.678 39.6564 30.6531 39.9577 30.6062V31.8136H39.9576Z" fill="#BDBDBD"/>
<path d="M20.3387 23.6865H29.6612C30.41 23.6865 31.017 23.0794 31.017 22.3306C31.017 21.5817 30.4098 20.9747 29.6612 20.9747H20.3387C19.5899 20.9747 18.9829 21.5819 18.9829 22.3306C18.9828 23.0794 19.5899 23.6865 20.3387 23.6865Z" fill="#BDBDBD"/>
<path d="M13.3473 26.017C15.3801 26.017 17.0338 24.3632 17.0338 22.3305C17.0338 20.2978 15.3801 18.6442 13.3473 18.6442C11.3146 18.6442 9.66101 20.2978 9.66101 22.3305C9.66088 24.3631 11.3146 26.017 13.3473 26.017ZM13.3473 21.3558C13.8847 21.3558 14.3219 21.7931 14.3219 22.3304C14.3219 22.8677 13.8847 23.3049 13.3473 23.3049C12.8101 23.3049 12.3728 22.8677 12.3728 22.3304C12.3727 21.7931 12.81 21.3558 13.3473 21.3558Z" fill="#BDBDBD"/>
<path d="M36.6525 26.017C38.6853 26.017 40.3389 24.3632 40.3389 22.3305C40.3389 20.2978 38.6853 18.6442 36.6525 18.6442C34.6198 18.6442 32.9661 20.2978 32.9661 22.3305C32.9659 24.3631 34.6198 26.017 36.6525 26.017ZM36.6525 21.3558C37.1898 21.3558 37.6271 21.7931 37.6271 22.3304C37.6271 22.8677 37.1898 23.3049 36.6525 23.3049C36.1152 23.3049 35.678 22.8677 35.678 22.3304C35.6778 21.7931 36.115 21.3558 36.6525 21.3558Z" fill="#BDBDBD"/>
<line x1="1.84031" y1="37.138" x2="46.9441" y2="5.03726" stroke="#BDBDBD" stroke-width="4"/>
</svg>