<svg width="40" height="40" viewBox="0 0 40 40" fill="none" xmlns="http://www.w3.org/2000/svg">
<path d="M11.1136 30.0153H13.5045V32.4063C13.5045 33.2875 14.219 34.002 15.1003 34.002C15.9816 34.002 16.6961 33.2876 16.6961 32.4063V30.0153H19.087C19.9682 30.0153 20.6827 29.3009 20.6827 28.4195C20.6827 27.5382 19.9683 26.8238 19.087 26.8238H16.6961V24.4328C16.6961 23.5516 15.9816 22.837 15.1003 22.837C14.219 22.837 13.5045 23.5515 13.5045 24.4328V26.8238H11.1136C10.2324 26.8238 9.51782 27.5382 9.51782 28.4195C9.51782 29.3009 10.2324 30.0153 11.1136 30.0153Z" fill="#BDBDBD"/>
<path d="M34.6792 0H5.32088C4.43963 0 3.7251 0.714453 3.7251 1.59578V38.4043C3.7251 39.2855 4.43955 40.0001 5.32088 40.0001H26.4894C26.8824 40.0001 27.306 39.8447 27.6177 39.5327L35.8074 31.3429C36.1024 31.0481 36.2749 30.6373 36.2749 30.2145V1.59578C36.2749 0.714453 35.5606 0 34.6792 0ZM28.0851 34.5518V31.8102H30.8267C29.0264 33.6105 29.4824 33.1545 28.0851 34.5518ZM33.0835 28.6188H33.0835H26.4894C25.6081 28.6188 24.8936 29.3332 24.8936 30.2145V36.8086H6.91658V3.19148H33.0835V28.6188Z" fill="#BDBDBD"/>
<path d="M11.1136 19.4651H19.3618C20.2431 19.4651 20.9576 18.7507 20.9576 17.8693C20.9576 16.988 20.2431 16.2736 19.3618 16.2736H11.1136C10.2324 16.2736 9.51782 16.988 9.51782 17.8693C9.51782 18.7507 10.2324 19.4651 11.1136 19.4651Z" fill="#BDBDBD"/>
<path d="M11.1136 14.5679H28.8866C29.7678 14.5679 30.4824 13.8535 30.4824 12.9722C30.4824 12.091 29.7679 11.3765 28.8866 11.3765H11.1136C10.2324 11.3765 9.51782 12.0909 9.51782 12.9722C9.51782 13.8536 10.2324 14.5679 11.1136 14.5679Z" fill="#BDBDBD"/>
<path d="M11.1136 9.67057H28.8866C29.7678 9.67057 30.4824 8.95611 30.4824 8.07479C30.4824 7.19346 29.7679 6.479 28.8866 6.479H11.1136C10.2324 6.479 9.51782 7.19346 9.51782 8.07479C9.51782 8.95611 10.2324 9.67057 11.1136 9.67057Z" fill="#BDBDBD"/>
<line x1="-3.15969" y1="36.4714" x2="41.9441" y2="4.37063" stroke="#BDBDBD" stroke-width="4"/>
</svg>