<svg width="34" height="40" viewBox="0 0 34 40" fill="none" xmlns="http://www.w3.org/2000/svg">
<path d="M8.1136 30.0153H10.5045V32.4063C10.5045 33.2875 11.219 34.002 12.1003 34.002C12.9816 34.002 13.6961 33.2876 13.6961 32.4063V30.0153H16.087C16.9682 30.0153 17.6827 29.3009 17.6827 28.4195C17.6827 27.5382 16.9683 26.8238 16.087 26.8238H13.6961V24.4328C13.6961 23.5516 12.9816 22.837 12.1003 22.837C11.219 22.837 10.5045 23.5515 10.5045 24.4328V26.8238H8.1136C7.23235 26.8238 6.51782 27.5382 6.51782 28.4195C6.51782 29.3009 7.23235 30.0153 8.1136 30.0153Z" fill="#5678BA"/>
<path d="M31.6792 0H2.32088C1.43963 0 0.725098 0.714453 0.725098 1.59578V38.4043C0.725098 39.2855 1.43955 40.0001 2.32088 40.0001H23.4894C23.8824 40.0001 24.306 39.8447 24.6177 39.5327L32.8074 31.3429C33.1024 31.0481 33.2749 30.6373 33.2749 30.2145V1.59578C33.2749 0.714453 32.5606 0 31.6792 0ZM25.0851 34.5518V31.8102H27.8267C26.0264 33.6105 26.4824 33.1545 25.0851 34.5518ZM30.0835 28.6188H30.0835H23.4894C22.6081 28.6188 21.8936 29.3332 21.8936 30.2145V36.8086H3.91658V3.19148H30.0835V28.6188Z" fill="#5678BA"/>
<path d="M8.1136 19.4651H16.3618C17.2431 19.4651 17.9576 18.7507 17.9576 17.8693C17.9576 16.988 17.2431 16.2736 16.3618 16.2736H8.1136C7.23235 16.2736 6.51782 16.988 6.51782 17.8693C6.51782 18.7507 7.23235 19.4651 8.1136 19.4651Z" fill="#5678BA"/>
<path d="M8.1136 14.5679H25.8866C26.7678 14.5679 27.4824 13.8535 27.4824 12.9722C27.4824 12.091 26.7679 11.3765 25.8866 11.3765H8.1136C7.23235 11.3765 6.51782 12.0909 6.51782 12.9722C6.51782 13.8536 7.23235 14.5679 8.1136 14.5679Z" fill="#5678BA"/>
<path d="M8.1136 9.67057H25.8866C26.7678 9.67057 27.4824 8.95611 27.4824 8.07479C27.4824 7.19346 26.7679 6.479 25.8866 6.479H8.1136C7.23235 6.479 6.51782 7.19346 6.51782 8.07479C6.51782 8.95611 7.23235 9.67057 8.1136 9.67057Z" fill="#5678BA"/>
</svg>