<svg width="46" height="46" viewBox="0 0 46 46" fill="none" xmlns="http://www.w3.org/2000/svg">
<path d="M45.4999 18.3H28.5499L35.3999 11.25C28.5749 4.5 17.5249 4.25 10.6999 11C3.87489 17.775 3.87489 28.7 10.6999 35.475C17.5249 42.25 28.5749 42.25 35.3999 35.475C38.7999 32.125 40.4999 28.2 40.4999 23.25H45.4999C45.4999 28.2 43.2999 34.625 38.8999 38.975C30.1249 47.675 15.8749 47.675 7.09989 38.975C-1.65011 30.3 -1.72511 16.2 7.04989 7.525C15.8249 -1.15 29.8999 -1.15 38.6749 7.525L45.4999 0.5V18.3ZM24.2499 13V23.625L32.9999 28.825L31.1999 31.85L20.4999 25.5V13H24.2499Z" fill="#5678BA"/>
</svg>