<?xml version="1.0" encoding="iso-8859-1"?>
<!-- Generator: Adobe Illustrator 16.0.0, SVG Export Plug-In . SVG Version: 6.00 Build 0)  -->
<!DOCTYPE svg PUBLIC "-//W3C//DTD SVG 1.1//EN" "http://www.w3.org/Graphics/SVG/1.1/DTD/svg11.dtd">
<svg version="1.1" id="Capa_1" xmlns="http://www.w3.org/2000/svg" xmlns:xlink="http://www.w3.org/1999/xlink" x="0px" y="0px"
	 width="484.379px" height="484.379px" viewBox="0 0 484.379 484.379" style="enable-background:new 0 0 484.379 484.379;"
	 xml:space="preserve">
<g>
	<g>
		<path d="M413.443,70.935C367.699,25.192,306.881,0,242.189,0c-64.691,0-125.51,25.192-171.254,70.935
			C25.192,116.679,0,177.498,0,242.189s25.192,125.51,70.936,171.254c45.743,45.742,106.562,70.936,171.253,70.936
			c64.692,0,125.51-25.193,171.254-70.938c45.742-45.742,70.936-106.562,70.936-171.252S459.186,116.679,413.443,70.935z
			 M267.189,432.754v-62.66h-50v62.66c-86.02-11.225-154.341-79.545-165.564-165.564h62.659v-50H51.625
			c11.223-86.02,79.544-154.341,165.564-165.564v62.659h50V51.625c86.02,11.223,154.34,79.544,165.564,165.564h-62.66v50h62.66
			C421.529,353.209,353.209,421.529,267.189,432.754z"/>
		<circle cx="242.189" cy="242.189" r="35.998"/>
	</g>
</g>
<g>
</g>
<g>
</g>
<g>
</g>
<g>
</g>
<g>
</g>
<g>
</g>
<g>
</g>
<g>
</g>
<g>
</g>
<g>
</g>
<g>
</g>
<g>
</g>
<g>
</g>
<g>
</g>
<g>
</g>
</svg>
