<?xml version="1.0" encoding="UTF-8"?>
<svg width="484.38px" height="484.38px" enable-background="new 0 0 484.379 484.379" version="1.1"
     viewBox="0 0 484.38 484.38" xml:space="preserve" xmlns="http://www.w3.org/2000/svg">
	<path d="m413.44 70.935c-45.744-45.743-106.56-70.935-171.25-70.935-64.691 0-125.51 25.192-171.25 70.935-45.743 45.744-70.935 106.56-70.935 171.25s25.192 125.51 70.936 171.25c45.743 45.742 106.56 70.936 171.25 70.936 64.692 0 125.51-25.193 171.25-70.938 45.742-45.742 70.936-106.56 70.936-171.25s-25.193-125.51-70.936-171.25zm-146.25 361.82v-62.66h-50v62.66c-86.02-11.225-154.34-79.545-165.56-165.56h62.659v-50h-62.659c11.223-86.02 79.544-154.34 165.56-165.56v62.659h50v-62.66c86.02 11.223 154.34 79.544 165.56 165.56h-62.66v50h62.66c-11.224 86.02-79.544 154.34-165.56 165.56z"/>
    <circle cx="242.19" cy="242.19" r="35.998"/>
</svg>
