<?xml version="1.0" encoding="UTF-8" standalone="no"?>
<svg
   xmlns:dc="http://purl.org/dc/elements/1.1/"
   xmlns:cc="http://creativecommons.org/ns#"
   xmlns:rdf="http://www.w3.org/1999/02/22-rdf-syntax-ns#"
   xmlns:svg="http://www.w3.org/2000/svg"
   xmlns="http://www.w3.org/2000/svg"
   xmlns:sodipodi="http://sodipodi.sourceforge.net/DTD/sodipodi-0.dtd"
   xmlns:inkscape="http://www.inkscape.org/namespaces/inkscape"
   inkscape:version="1.0 (6e3e5246a0, 2020-05-07)"
   sodipodi:docname="location-pin.svg"
   xml:space="preserve"
   viewBox="0 0 267.428 425.96398"
   height="425.96399"
   width="267.42801"
   y="0px"
   x="0px"
   id="Capa_1"
   version="1.1"><metadata
   id="metadata41"><rdf:RDF><cc:Work
       rdf:about=""><dc:format>image/svg+xml</dc:format><dc:type
         rdf:resource="http://purl.org/dc/dcmitype/StillImage" /></cc:Work></rdf:RDF></metadata><defs
   id="defs39" /><sodipodi:namedview
   inkscape:current-layer="g4"
   inkscape:window-maximized="1"
   inkscape:window-y="27"
   inkscape:window-x="0"
   inkscape:cy="283.89482"
   inkscape:cx="232.8327"
   inkscape:zoom="0.91547069"
   inkscape:guide-bbox="true"
   showguides="true"
   showgrid="false"
   id="namedview37"
   inkscape:window-height="836"
   inkscape:window-width="1600"
   inkscape:pageshadow="2"
   inkscape:pageopacity="0"
   guidetolerance="10"
   gridtolerance="10"
   objecttolerance="10"
   borderopacity="1"
   bordercolor="#666666"
   pagecolor="#ffffff" />
<g
   transform="translate(-79.268)"
   id="g4">
	<path
   style="fill:#f2003e;fill-opacity:1;stroke:none;stroke-opacity:1"
   id="path2"
   d="m 213.285,0 h -0.608 C 139.114,0 79.268,59.826 79.268,133.361 c 0,48.202 21.952,111.817 65.246,189.081 32.098,57.281 64.646,101.152 64.972,101.588 0.906,1.217 2.334,1.934 3.847,1.934 0.043,0 0.087,0 0.13,-0.002 1.561,-0.043 3.002,-0.842 3.868,-2.143 0.321,-0.486 32.637,-49.287 64.517,-108.976 43.03,-80.563 64.848,-141.624 64.848,-181.482 C 346.693,59.825 286.846,0 213.285,0 Z m 61.58,136.62 c 0,34.124 -27.761,61.884 -61.885,61.884 -34.123,0 -61.884,-27.761 -61.884,-61.884 0,-34.123 27.761,-61.884 61.884,-61.884 34.124,0 61.885,27.761 61.885,61.884 z" />
<ellipse
   ry="62.465034"
   rx="62.391136"
   cy="136.37743"
   cx="213.07367"
   id="path874"
   style="fill:#ac0018;fill-opacity:1;stroke:none;stroke-width:4.95646;stroke-linecap:round;stroke-linejoin:round;stroke-opacity:1" /></g>
<g
   transform="translate(-79.268)"
   id="g6">
</g>
<g
   transform="translate(-79.268)"
   id="g8">
</g>
<g
   transform="translate(-79.268)"
   id="g10">
</g>
<g
   transform="translate(-79.268)"
   id="g12">
</g>
<g
   transform="translate(-79.268)"
   id="g14">
</g>
<g
   transform="translate(-79.268)"
   id="g16">
</g>
<g
   transform="translate(-79.268)"
   id="g18">
</g>
<g
   transform="translate(-79.268)"
   id="g20">
</g>
<g
   transform="translate(-79.268)"
   id="g22">
</g>
<g
   transform="translate(-79.268)"
   id="g24">
</g>
<g
   transform="translate(-79.268)"
   id="g26">
</g>
<g
   transform="translate(-79.268)"
   id="g28">
</g>
<g
   transform="translate(-79.268)"
   id="g30">
</g>
<g
   transform="translate(-79.268)"
   id="g32">
</g>
<g
   transform="translate(-79.268)"
   id="g34">
</g>
</svg>
