<svg width="57" height="56" viewBox="0 0 57 56" fill="none" xmlns="http://www.w3.org/2000/svg">
<path d="M17.8932 48.3533C19.7654 48.3533 21.2831 49.871 21.2831 51.7432C21.2831 53.6154 19.7654 55.1331 17.8932 55.1331C16.021 55.1331 14.5033 53.6154 14.5033 51.7432C14.5033 49.871 16.021 48.3533 17.8932 48.3533ZM45.4746 48.3533C47.3468 48.3533 48.8645 49.871 48.8645 51.7432C48.8645 53.6154 47.3468 55.1331 45.4746 55.1331C43.6024 55.1331 42.0847 53.6154 42.0847 51.7432C42.0847 49.871 43.6024 48.3533 45.4746 48.3533ZM6.02855 0.740723C10.343 0.740723 13.887 3.66836 14.6574 7.82868L14.8115 9.06137L54.5657 12.7594C56.1066 12.9135 57.1852 14.6085 56.7229 16.1493L50.4054 34.9478C49.9431 36.0264 49.0186 36.6428 47.94 36.6428H19.5881L17.8932 41.4194H49.1727C50.2513 41.4194 51.1758 42.344 51.1758 43.4226C51.1758 44.5012 50.2513 45.4257 49.1727 45.4257H16.1982C14.3492 45.4257 13.1165 43.5766 13.7329 41.8817L15.736 35.8723L10.8052 8.59911C10.343 6.28782 8.33984 4.59287 6.02855 4.59287H2.48457C1.40596 4.59287 0.481445 3.82244 0.481445 2.74384C0.481445 1.66524 1.40596 0.740723 2.48457 0.740723H6.02855Z" fill="#5678BA"/>
</svg>