<?xml version="1.0" encoding="iso-8859-1"?>
<!-- Generator: Adobe Illustrator 19.0.0, SVG Export Plug-In . SVG Version: 6.00 Build 0)  -->
<svg version="1.1" id="Layer_1" xmlns="http://www.w3.org/2000/svg" xmlns:xlink="http://www.w3.org/1999/xlink" x="0px" y="0px"
	 viewBox="0 0 511.998 511.998" style="enable-background:new 0 0 511.998 511.998;" xml:space="preserve">
<g>
	<g>
		<g>
			<path d="M401.232,178.711l-63.822-75.578h18.015c6.888,0,12.47-5.583,12.47-12.47V12.47c0-6.888-5.582-12.47-12.47-12.47H156.576
				c-6.888,0-12.47,5.582-12.47,12.47v78.192c0,6.887,5.582,12.47,12.47,12.47h18.013l-63.822,75.578
				c-1.9,2.251-2.943,5.099-2.943,8.046c0,14.625,0,302.44,0,312.772c0,6.887,5.583,12.47,12.47,12.47h271.408
				c6.888,0,12.47-5.583,12.47-12.47c0-16.572,0-300.944,0-312.772C404.175,183.812,403.132,180.962,401.232,178.711z
				 M169.046,78.192V24.94h173.909v53.252C309.454,78.192,206.887,78.192,169.046,78.192z M379.235,487.06H132.767v-59.682h246.468
				V487.06z M379.235,402.438H132.767V260.07h246.468V402.438z M379.235,235.13H132.767v-43.813l74.468-88.185h97.532l74.468,88.185
				V235.13z" fill="white"/>
			<path d="M214.86,347.555h20.118c2.609,0,4.724,2.115,4.724,4.724v20.118c0,2.609,2.115,4.724,4.724,4.724h23.151
				c2.609,0,4.724-2.115,4.724-4.724v-20.118c0-2.609,2.115-4.724,4.725-4.724h20.118c2.609,0,4.724-2.115,4.724-4.724V319.68
				c0-2.609-2.115-4.724-4.724-4.724h-20.118c-2.609,0-4.725-2.115-4.725-4.724v-20.118c0-2.609-2.115-4.724-4.724-4.724h-23.151
				c-2.609,0-4.724,2.115-4.724,4.724v20.118c0,2.609-2.115,4.724-4.724,4.724H214.86c-2.609,0-4.724,2.115-4.724,4.724v23.151
				C210.136,345.44,212.251,347.555,214.86,347.555z" fill="white"/>
		</g>
	</g>
</g>
</svg>
